# Blender v2.91.0 OBJ File: 'Monitor.blend'
# www.blender.org
mtllib Monitor.mtl
o Monitor_Cube
v 0.074917 0.679978 0.495331
v 0.074917 0.103565 0.495331
v 0.074917 0.679978 -0.495331
v 0.074917 0.103565 -0.495331
v 0.056130 0.679978 0.495331
v 0.050777 0.103565 0.495331
v 0.056130 0.679978 -0.495331
v 0.056130 0.103565 -0.495331
v 0.067319 0.649804 0.465157
v 0.067319 0.133739 0.465157
v 0.067319 0.649804 -0.465157
v 0.067319 0.133739 -0.465157
v 0.050777 0.658395 0.473748
v 0.059368 0.649804 0.465157
v 0.059368 0.133739 0.465157
v 0.050777 0.125148 0.473748
v 0.059368 0.649804 -0.465157
v 0.050777 0.658395 -0.473748
v 0.050777 0.125148 -0.473748
v 0.059368 0.133739 -0.465157
v 0.080270 0.103565 0.495331
v 0.080270 0.103565 -0.495331
v 0.050777 0.679978 0.495331
v 0.056130 0.103565 0.495331
v 0.080270 0.679978 -0.495331
v 0.050777 0.679978 -0.495331
v 0.050777 0.103565 -0.495331
v 0.080270 0.679978 0.495331
v 0.056281 0.108204 0.487357
v 0.074766 0.108204 0.487357
v 0.056281 0.675339 -0.487357
v 0.074766 0.675339 -0.487357
v 0.074766 0.108204 -0.487357
v 0.056281 0.108204 -0.487357
v 0.074766 0.675339 0.487357
v 0.056281 0.675339 0.487357
v 0.094503 0.334008 0.077660
v 0.092868 0.353058 0.100260
v 0.076765 0.334005 0.103743
v 0.094503 0.334008 -0.077660
v 0.076765 0.334005 -0.103743
v 0.092868 0.353058 -0.100260
v 0.092868 0.430485 -0.100260
v 0.076765 0.449538 -0.103743
v 0.094503 0.449535 -0.077660
v 0.092868 0.430485 0.100260
v 0.094503 0.449535 0.077660
v 0.076765 0.449538 0.103743
v 0.205917 0.371871 0.027763
v 0.205770 0.378131 0.034243
v 0.183686 0.384862 0.045599
v 0.182050 0.364667 0.024968
v 0.205917 0.371871 -0.027763
v 0.182050 0.364667 -0.024968
v 0.183686 0.384862 -0.045599
v 0.205770 0.378131 -0.034243
v 0.205770 0.405412 -0.034243
v 0.183686 0.398681 -0.045599
v 0.182050 0.418876 -0.024968
v 0.205917 0.411671 -0.027763
v 0.205770 0.405412 0.034243
v 0.205917 0.411671 0.027763
v 0.182050 0.418876 0.024968
v 0.183686 0.398681 0.045599
v 0.251153 0.379196 0.015174
v 0.257282 0.386397 0.013698
v 0.251301 0.385504 0.021571
v 0.251153 0.379196 -0.015174
v 0.251301 0.385504 -0.021571
v 0.257282 0.386397 -0.013698
v 0.251301 0.398039 -0.021571
v 0.251153 0.404346 -0.015174
v 0.257282 0.397146 -0.013698
v 0.251301 0.398039 0.021571
v 0.257282 0.397146 0.013698
v 0.251153 0.404346 0.015174
v 0.283963 0.386397 -0.013698
v 0.283963 0.386397 0.013698
v 0.283963 0.397146 -0.013698
v 0.283963 0.397146 0.013698
v 0.082624 0.329848 -0.099285
v 0.082624 0.329848 0.099285
v 0.082084 0.447402 -0.106750
v 0.082084 0.336141 -0.106750
v 0.082084 0.336141 0.106750
v 0.082084 0.447402 0.106750
v 0.082624 0.453695 0.099285
v 0.082624 0.453695 -0.099285
v 0.193929 0.368827 0.032294
v 0.193929 0.368827 -0.032294
v 0.194469 0.375498 -0.039109
v 0.194469 0.408045 -0.039109
v 0.194469 0.408045 0.039109
v 0.194469 0.375498 0.039109
v 0.193929 0.414716 -0.032294
v 0.193929 0.414716 0.032294
v 0.098762 0.339628 -0.070105
v 0.098762 0.339628 0.070105
v 0.097285 0.426719 -0.090506
v 0.097285 0.356824 -0.090506
v 0.097285 0.356824 0.090506
v 0.097285 0.426719 0.090506
v 0.098762 0.443915 0.070105
v 0.098762 0.443915 -0.070105
v 0.177792 0.367304 0.022539
v 0.177792 0.367304 -0.022539
v 0.179268 0.385534 -0.041163
v 0.179268 0.398009 -0.041163
v 0.179268 0.398009 0.041163
v 0.179268 0.385534 0.041163
v 0.177792 0.416239 -0.022539
v 0.177792 0.416239 0.022539
vt 0.375000 0.000000
vt 0.625000 0.000000
vt 0.625000 0.250000
vt 0.375000 0.250000
vt 0.388087 0.507615
vt 0.611913 0.507615
vt 0.611913 0.742385
vt 0.388087 0.742385
vt 0.625000 0.199205
vt 0.625000 0.050795
vt 0.625000 0.050795
vt 0.625000 0.199205
vt 0.415615 0.000000
vt 0.584385 0.000000
vt 0.564269 0.000000
vt 0.435731 0.000000
vt 0.580388 0.000000
vt 0.535062 0.000000
vt 0.535062 0.000000
vt 0.580388 0.000000
vt 0.387130 0.007058
vt 0.387130 0.242942
vt 0.612870 0.242942
vt 0.612870 0.007058
vt 0.375000 0.225476
vt 0.375000 0.024524
vt 0.375000 0.034592
vt 0.375000 0.215408
vt 0.464939 0.250000
vt 0.535062 0.250000
vt 0.535062 0.250000
vt 0.464939 0.250000
vt 0.584385 0.250000
vt 0.415615 0.250000
vt 0.435731 0.250000
vt 0.564269 0.250000
vt 0.442001 0.211016
vt 0.442001 0.038984
vt 0.442001 0.038984
vt 0.442001 0.211016
vt 0.625000 0.024524
vt 0.625000 0.225476
vt 0.625000 0.215408
vt 0.625000 0.034592
vt 0.375000 0.240996
vt 0.389031 0.250000
vt 0.375000 0.009004
vt 0.389031 0.000000
vt 0.610970 0.000000
vt 0.625000 0.009004
vt 0.610970 0.250000
vt 0.625000 0.240996
vt 0.375000 0.232106
vt 0.375000 0.017894
vt 0.406890 0.000000
vt 0.593111 0.000000
vt 0.593111 0.250000
vt 0.406890 0.250000
vt 0.625000 0.017894
vt 0.625000 0.232106
vt 0.557999 0.038984
vt 0.557999 0.211016
vt 0.375000 0.028801
vt 0.375000 0.050795
vt 0.375000 0.050795
vt 0.375000 0.028801
vt 0.557999 0.038984
vt 0.557999 0.211016
vt 0.375000 0.221199
vt 0.419612 0.000000
vt 0.419612 0.250000
vt 0.580388 0.250000
vt 0.625000 0.221199
vt 0.625000 0.028801
vt 0.375000 0.199205
vt 0.464939 0.000000
vt 0.375000 0.221199
vt 0.625000 0.028801
vt 0.375000 0.199205
vt 0.419612 0.000000
vt 0.419612 0.250000
vt 0.580388 0.250000
vt 0.625000 0.221199
vt 0.464939 0.000000
vt 0.670373 0.500000
vt 0.329627 0.500000
vt 0.329627 0.500000
vt 0.670373 0.500000
vt 0.329627 0.750000
vt 0.670373 0.750000
vt 0.670373 0.750000
vt 0.329627 0.750000
vt 0.615639 0.744553
vt 0.615639 0.505447
vt 0.625000 0.500000
vt 0.625000 0.750000
vt 0.611913 0.507615
vt 0.611913 0.742385
vt 0.388087 0.742385
vt 0.388087 0.507615
vt 0.384361 0.505447
vt 0.375000 0.500000
vt 0.384361 0.744553
vt 0.375000 0.750000
vt 0.170373 0.500000
vt 0.170373 0.750000
vt 0.125000 0.750000
vt 0.125000 0.500000
vt 0.375000 0.954627
vt 0.625000 0.954627
vt 0.625000 1.000000
vt 0.375000 1.000000
vt 0.625000 0.295373
vt 0.375000 0.295373
vt 0.829627 0.750000
vt 0.829627 0.500000
vt 0.875000 0.500000
vt 0.875000 0.750000
vt 0.829627 0.750000
vt 0.829627 0.500000
vt 0.625000 0.295373
vt 0.375000 0.295373
vt 0.375000 0.954627
vt 0.625000 0.954627
vt 0.170373 0.500000
vt 0.170373 0.750000
vn 1.0000 0.0000 0.0000
vn -1.0000 0.0000 0.0000
vn -0.5264 0.8502 0.0000
vn 0.2681 0.0000 -0.9634
vn -0.1527 -0.9432 -0.2950
vn 0.1598 -0.9871 0.0000
vn -0.7086 0.0000 0.7056
vn 0.2681 -0.0000 0.9634
vn 0.0000 -1.0000 0.0000
vn 0.1598 0.9871 -0.0000
vn -0.0551 -0.7654 0.6412
vn -0.0551 -0.7654 -0.6412
vn -0.0551 0.7654 -0.6412
vn -0.0551 0.7654 0.6412
vn -0.5786 -0.8156 0.0000
vn -0.4921 0.0000 -0.8705
vn -0.4921 0.0000 0.8705
vn -0.5786 0.8156 0.0000
vn 0.2461 -0.9692 0.0000
vn 0.3955 0.0000 -0.9185
vn 0.3955 0.0000 0.9185
vn 0.2461 0.9692 0.0000
vn 0.7615 -0.6481 0.0000
vn 0.7963 0.0000 -0.6049
vn 0.7963 0.0000 0.6049
vn 0.7615 0.6481 -0.0000
vn -0.1130 -0.7657 0.6332
vn 0.0000 1.0000 0.0000
vn 0.0000 0.0000 1.0000
vn 0.0000 0.0000 -1.0000
vn 0.3305 -0.9438 -0.0000
vn 0.5157 0.0000 -0.8568
vn 0.5157 0.0000 0.8568
vn 0.3305 0.9438 0.0000
vn 0.7970 -0.6040 0.0000
vn -0.1129 0.7657 0.6332
vn -0.1130 -0.7657 -0.6332
vn 0.9109 0.0000 -0.4126
vn -0.1527 0.9432 0.2950
vn 0.9109 0.0000 0.4126
vn -0.1129 0.7657 -0.6332
vn 0.7970 0.6040 -0.0000
vn -0.1527 -0.9432 0.2950
vn -0.5264 -0.8502 0.0000
vn -0.1527 0.9432 -0.2950
vn -0.7086 0.0000 -0.7056
vn 0.9998 0.0000 0.0190
vn 0.9998 0.0000 -0.0190
vn 0.9995 0.0326 0.0000
vn 0.9995 -0.0326 0.0000
vn -0.7071 0.0000 -0.7071
vn -0.7071 0.0000 0.7071
vn -0.7071 -0.7071 0.0000
vn -0.7071 0.7071 0.0000
vn -0.9995 0.0326 0.0000
vn -0.9998 0.0000 0.0190
vn -0.9998 0.0000 -0.0190
vn -0.9995 -0.0326 0.0000
vn 0.4141 -0.6586 0.6283
vn 0.4141 -0.6586 -0.6283
vn 0.4141 0.6586 -0.6283
vn 0.4141 0.6586 0.6283
vn 0.7129 -0.5075 0.4840
vn 0.7129 -0.5075 -0.4840
vn 0.7129 0.5075 -0.4840
vn 0.7129 0.5075 0.4840
vn 0.5531 -0.6169 0.5600
vn 0.5531 0.6169 0.5600
vn 0.5531 -0.6169 -0.5600
vn 0.5531 0.6169 -0.5600
vn 0.2963 -0.6835 0.6671
vn 0.2963 0.6835 0.6671
vn 0.2963 -0.6835 -0.6671
vn 0.2963 0.6835 -0.6671
usemtl Monitior_Color1
s off
f 22/1/1 25/2/1 28/3/1 21/4/1
f 10/5/2 9/6/2 11/7/2 12/8/2
f 63/9/3 59/10/3 111/11/3 112/12/3
f 56/13/4 57/14/4 71/15/4 69/16/4
f 43/17/5 58/18/5 108/19/5 99/20/5
f 41/21/2 39/22/2 48/23/2 44/24/2
f 49/25/6 53/26/6 68/27/6 65/28/6
f 51/29/7 64/30/7 109/31/7 110/32/7
f 61/33/8 50/34/8 67/35/8 74/36/8
f 66/37/9 70/38/9 77/39/9 78/40/9
f 60/41/10 62/42/10 76/43/10 72/44/10
f 82/45/11 85/46/11 39/22/11
f 81/47/12 41/21/12 84/48/12
f 83/49/13 44/24/13 88/50/13
f 86/51/14 87/52/14 48/23/14
f 39/22/15 41/21/15 81/47/15 82/45/15
f 41/21/16 44/24/16 83/49/16 84/48/16
f 48/23/17 39/22/17 85/46/17 86/51/17
f 44/24/18 48/23/18 87/52/18 88/50/18
f 89/53/19 90/54/19 53/26/19 49/25/19
f 91/55/20 92/56/20 57/14/20 56/13/20
f 93/57/21 94/58/21 50/34/21 61/33/21
f 95/59/22 96/60/22 62/42/22 60/41/22
f 65/28/23 68/27/23 70/38/23 66/37/23
f 69/16/24 71/15/24 73/61/24 70/38/24
f 74/36/25 67/35/25 66/37/25 75/62/25
f 72/44/26 76/43/26 75/62/26 73/61/26
f 40/63/27 54/64/27 106/65/27 97/66/27
f 77/39/1 79/67/1 80/68/1 78/40/1
f 73/61/28 75/62/28 80/68/28 79/67/28
f 75/62/29 66/37/29 78/40/29 80/68/29
f 70/38/30 73/61/30 79/67/30 77/39/30
f 40/63/31 37/69/31 82/45/31 81/47/31
f 43/17/32 42/70/32 84/48/32 83/49/32
f 38/71/33 46/72/33 86/51/33 85/46/33
f 47/73/34 45/74/34 88/50/34 87/52/34
f 52/75/31 54/64/31 90/54/31 89/53/31
f 55/76/32 58/18/32 92/56/32 91/55/32
f 64/30/33 51/29/33 94/58/33 93/57/33
f 59/10/34 63/9/34 96/60/34 95/59/34
f 37/69/31 52/75/31 89/53/31 82/45/31
f 51/29/33 38/71/33 85/46/33 94/58/33
f 63/9/34 47/73/34 87/52/34 96/60/34
f 46/72/33 64/30/33 93/57/33 86/51/33
f 42/70/32 55/76/32 91/55/32 84/48/32
f 54/64/31 40/63/31 81/47/31 90/54/31
f 58/18/32 43/17/32 83/49/32 92/56/32
f 45/74/34 59/10/34 95/59/34 88/50/34
f 37/69/35 40/63/35 97/66/35 98/77/35
f 59/10/36 45/74/36 104/78/36 111/11/36
f 52/75/37 37/69/37 98/77/37 105/79/37
f 42/70/38 43/17/38 99/20/38 100/80/38
f 38/71/39 51/29/39 110/32/39 101/81/39
f 46/72/40 38/71/40 101/81/40 102/82/40
f 47/73/41 63/9/41 112/12/41 103/83/41
f 45/74/42 47/73/42 103/83/42 104/78/42
f 64/30/43 46/72/43 102/82/43 109/31/43
f 54/64/44 52/75/44 105/79/44 106/65/44
f 55/76/45 42/70/45 100/80/45 107/84/45
f 58/18/46 55/76/46 107/84/46 108/19/46
usemtl Monitor_Color2
f 5/85/47 24/86/47 29/87/47 36/88/47
f 8/89/48 7/90/48 31/91/48 34/92/48
f 7/90/49 5/85/49 36/88/49 31/91/49
f 18/93/2 13/94/2 23/95/2 26/96/2
f 24/86/50 8/89/50 34/92/50 29/87/50
f 14/97/9 17/98/9 11/7/9 9/6/9
f 20/99/28 15/100/28 10/5/28 12/8/28
f 17/98/29 20/99/29 12/8/29 11/7/29
f 13/94/2 16/101/2 6/102/2 23/95/2
f 16/101/2 19/103/2 27/104/2 6/102/2
f 19/103/2 18/93/2 26/96/2 27/104/2
f 14/97/51 15/100/51 16/101/51 13/94/51
f 18/93/52 19/103/52 20/99/52 17/98/52
f 13/94/53 18/93/53 17/98/53 14/97/53
f 19/103/54 16/101/54 15/100/54 20/99/54
f 15/100/30 14/97/30 9/6/30 10/5/30
f 2/105/9 4/106/9 22/107/9 21/108/9
f 24/86/29 5/85/29 23/95/29 6/102/29
f 4/109/30 3/110/30 25/111/30 22/112/30
f 7/90/30 8/89/30 27/104/30 26/96/30
f 1/113/29 2/114/29 21/4/29 28/3/29
f 5/85/28 7/90/28 26/96/28 23/95/28
f 3/115/28 1/116/28 28/117/28 25/118/28
f 8/89/9 24/86/9 6/102/9 27/104/9
f 1/116/55 3/115/55 32/119/55 35/120/55
f 2/114/56 1/113/56 35/121/56 30/122/56
f 3/110/57 4/109/57 33/123/57 32/124/57
f 4/106/58 2/105/58 30/125/58 33/126/58
f 49/25/59 50/34/59 94/58/59 89/53/59
f 53/26/60 90/54/60 91/55/60 56/13/60
f 57/14/61 92/56/61 95/59/61 60/41/61
f 61/33/62 62/42/62 96/60/62 93/57/62
f 65/28/63 66/37/63 67/35/63
f 68/27/64 69/16/64 70/38/64
f 71/15/65 72/44/65 73/61/65
f 74/36/66 75/62/66 76/43/66
f 82/45/67 89/53/67 94/58/67 85/46/67
f 96/60/68 87/52/68 86/51/68 93/57/68
f 84/48/69 91/55/69 90/54/69 81/47/69
f 92/56/70 83/49/70 88/50/70 95/59/70
f 49/25/71 65/28/71 67/35/71 50/34/71
f 76/43/72 62/42/72 61/33/72 74/36/72
f 56/13/73 69/16/73 68/27/73 53/26/73
f 71/15/74 57/14/74 60/41/74 72/44/74
usemtl Monitor_light
f 36/88/28 35/120/28 32/119/28 31/91/28
f 34/92/30 31/91/30 32/124/30 33/123/30
f 30/125/9 29/87/9 34/92/9 33/126/9
f 30/122/29 35/121/29 36/88/29 29/87/29
f 102/82/33 101/81/33 110/32/33 109/31/33
f 100/80/32 99/20/32 108/19/32 107/84/32
f 104/78/34 103/83/34 112/12/34 111/11/34
f 98/77/31 97/66/31 106/65/31 105/79/31
